# xmcd
#
# Track frame offsets: 
#        150
#        20507
#        40545
#        59307
#        82027
#        103410
#        123830
#        143990
#        159660
#        184270
#
# Disc length: 2773 seconds
#
# Revision: 2
# Processed by: cddbd v1.5.2PL0 Copyright (c) Steve Scherf et al.
# Submitted via: ExactAudioCopy v1.0b3
#
DISCID=860ad30a
DTITLE=Tuan Ngoc - La Do Muon Chieu
DYEAR=1992
DGENRE=Classical
TTITLE0=Du am
TTITLE1=Mong duoi hoa
TTITLE2=Tinh khuc buon
TTITLE3=La do muon chieu
TTITLE4=Chuyen ben
TTITLE5=Roi mai toi dua em
TTITLE6=Hoai cam
TTITLE7=Tro ve ben mo
TTITLE8=Tinh khuc thu nhat
TTITLE9=Mat biec
EXTD=
EXTT0=
EXTT1=
EXTT2=
EXTT3=
EXTT4=
EXTT5=
EXTT6=
EXTT7=
EXTT8=
EXTT9=
PLAYORDER=
